<?xml version="1.0" encoding="UTF-8" standalone="no"?>
<!DOCTYPE svg PUBLIC "-//W3C//DTD SVG 1.1//EN" "http://www.w3.org/Graphics/SVG/1.1/DTD/svg11.dtd">
<svg width="100%" height="100%" viewBox="0 0 100 100" version="1.1" xmlns="http://www.w3.org/2000/svg" xmlns:xlink="http://www.w3.org/1999/xlink" xml:space="preserve" xmlns:serif="http://www.serif.com/" style="fill-rule:evenodd;clip-rule:evenodd;stroke-linejoin:round;stroke-miterlimit:2;">
    <g transform="matrix(0.140316,0,0,0.140316,9.23005,9.22986)">
        <path id="Shape" d="M385.14,163.703L409.484,163.703C409.484,163.703 412.74,149.872 415.181,138.887C417.623,127.901 429.624,122.002 429.624,122.002C429.416,116.304 433.284,115.288 433.284,115.288C458.706,106.745 480.476,111.42 489.833,113.862C499.19,116.303 498.578,121.591 498.578,121.591C508.75,127.29 509.563,135.019 509.563,135.019L517.703,166.347C551.063,189.536 558.793,223.306 561.234,241.611C563.677,259.916 579.546,380.338 580.763,394.58C581.981,408.816 582.795,462.114 533.976,469.844C485.157,477.574 459.526,433.229 459.526,433.229L426.57,376.068C352.934,433.229 317.946,355.523 317.946,355.523L263.172,355.523C263.172,355.523 228.184,433.229 154.548,376.068L121.592,433.229C121.592,433.229 95.962,477.574 47.142,469.844C-1.678,462.114 -0.864,408.821 0.354,394.58C1.579,380.344 17.441,259.921 19.882,241.611C22.324,223.306 30.054,189.535 63.414,166.347L71.554,135.019C71.554,135.019 72.368,127.289 82.539,121.591C82.539,121.591 81.928,116.303 91.285,113.862C100.643,111.42 122.405,106.745 147.834,115.288C147.834,115.288 151.696,116.304 151.494,122.002C151.494,122.002 163.495,127.902 165.937,138.887C168.379,149.872 171.635,163.703 171.635,163.703L195.977,163.703L195.977,217.744C195.977,231.079 206.803,241.905 220.138,241.905L360.979,241.905C374.314,241.905 385.14,231.079 385.14,217.744L385.14,163.703ZM201.788,163.703L379.329,163.703L379.329,217.744C379.329,227.872 371.107,236.094 360.979,236.094L220.138,236.094C210.01,236.094 201.788,227.872 201.788,217.744L201.788,163.703ZM200.111,364.892C222.437,364.892 240.607,346.728 240.601,324.408C240.601,302.083 222.437,283.919 200.111,283.919C177.785,283.919 159.621,302.083 159.621,324.408C159.621,346.728 177.785,364.892 200.111,364.892ZM419.202,267.137C433.528,267.137 445.182,255.479 445.187,241.152C445.187,226.825 433.528,215.167 419.202,215.167C404.875,215.167 393.216,226.825 393.216,241.152C393.216,255.479 404.875,267.137 419.202,267.137ZM381.362,364.892C403.688,364.892 421.852,346.728 421.851,324.408C421.851,302.083 403.687,283.919 381.362,283.919C359.036,283.919 340.872,302.083 340.872,324.408C340.872,346.728 359.036,364.892 381.362,364.892ZM155.968,264.371C156.629,264.371 157.223,264.353 157.717,264.317C167.662,263.613 167.668,250.038 167.674,244.219L167.674,244.084C167.674,238.227 167.601,224.83 157.729,224.126C157.227,224.09 156.634,224.071 155.973,224.071C150.318,224.071 136.444,225.577 132.313,227.639C128.501,229.549 121.585,238.979 119.29,242.198C119.106,242.413 118.954,242.651 118.831,242.908C118.666,243.264 118.574,243.631 118.55,244.004C118.513,244.592 118.642,245.192 118.935,245.724C119.033,245.902 119.15,246.073 119.278,246.22C121.072,248.76 128.324,258.815 132.314,260.804C136.439,262.866 150.319,264.371 155.968,264.371ZM465.824,313.759C480.15,313.759 491.804,302.101 491.809,287.774C491.809,273.447 480.15,261.789 465.824,261.789C451.497,261.789 439.839,273.447 439.839,287.774C439.839,302.101 451.497,313.759 465.824,313.759ZM512.446,267.137C526.772,267.137 538.426,255.479 538.431,241.152C538.431,226.825 526.773,215.167 512.446,215.167C498.119,215.167 486.461,226.825 486.461,241.152C486.461,255.479 498.119,267.137 512.446,267.137ZM70.288,264.316C70.784,264.353 71.377,264.371 72.045,264.377C77.7,264.377 91.58,262.871 95.705,260.809C99.69,258.82 106.936,248.79 108.741,246.231C108.9,246.041 109.041,245.828 109.157,245.601C109.365,245.178 109.469,244.719 109.475,244.267C109.481,243.851 109.402,243.428 109.236,243.031C109.114,242.731 108.942,242.461 108.74,242.223C106.463,239.016 99.529,229.548 95.704,227.639C91.573,225.577 77.699,224.071 72.044,224.071C71.377,224.071 70.79,224.09 70.294,224.126C60.349,224.83 60.343,238.404 60.343,244.243C60.343,250.038 60.35,263.612 70.288,264.316ZM134.101,287.927C134.48,282.615 132.681,266.721 130.59,262.517C128.833,258.997 120.908,252.982 116.11,249.554C115.95,249.408 115.767,249.273 115.571,249.157C114.837,248.735 113.973,248.649 113.178,248.863C112.927,248.936 112.682,249.04 112.45,249.175C112.291,249.267 112.144,249.371 112.009,249.487C108.808,251.764 99.34,258.704 97.431,262.523C95.332,266.715 93.539,282.615 93.918,287.927C94.622,297.871 108.19,297.878 114.01,297.884L114.034,297.884C119.823,297.878 133.391,297.871 134.101,287.927ZM93.911,200.502C93.525,205.821 95.325,221.72 97.43,225.905C99.339,229.73 108.795,236.664 112.002,238.941C112.216,239.125 112.455,239.271 112.718,239.4C112.938,239.498 113.171,239.571 113.409,239.62C113.605,239.658 113.807,239.682 114.009,239.682C114.541,239.682 115.08,239.541 115.563,239.259C115.729,239.168 115.875,239.064 116.01,238.942C120.784,235.539 128.813,229.456 130.588,225.906C132.687,221.72 134.48,205.82 134.101,200.496C133.385,190.564 119.823,190.558 113.978,190.551C108.189,190.558 94.615,190.564 93.911,200.502ZM465.824,168.544C451.497,168.544 439.839,180.203 439.839,194.529C439.839,208.855 451.497,220.514 465.824,220.514C480.15,220.514 491.809,208.855 491.809,194.529C491.809,180.202 480.15,168.544 465.824,168.544ZM290.559,275.21C279.219,275.21 269.996,284.433 269.996,295.773C269.996,307.112 279.219,316.335 290.559,316.335C301.899,316.335 311.122,307.112 311.122,295.773C311.122,284.433 301.899,275.21 290.559,275.21ZM290.559,280.109C299.197,280.109 306.223,287.135 306.223,295.773C306.223,304.41 299.197,311.436 290.559,311.436C281.921,311.436 274.895,304.41 274.895,295.773C274.895,287.135 281.921,280.109 290.559,280.109Z" style="fill-rule:nonzero;"/>
        <g id="Main" transform="matrix(0.50641,0,0,0.50641,143.417,145.99)">
            <path d="M290.559,264.842C273.502,264.842 259.628,278.716 259.628,295.773C259.628,312.829 273.502,326.703 290.559,326.703C307.616,326.703 321.49,312.829 321.49,295.773C321.49,278.716 307.616,264.842 290.559,264.842Z" style="fill-rule:nonzero;"/>
        </g>
        <g id="Joysticks">
            <path d="M200.111,290.032C181.157,290.032 165.741,305.455 165.741,324.402C165.741,343.349 181.157,358.766 200.111,358.766C219.065,358.766 234.481,343.349 234.481,324.402C234.481,305.455 219.065,290.032 200.111,290.032Z" style="fill-rule:nonzero;"/>
            <path d="M381.362,290.032C362.408,290.032 346.992,305.455 346.992,324.402C346.992,343.349 362.408,358.766 381.362,358.766C400.315,358.766 415.731,343.349 415.731,324.402C415.731,305.455 400.315,290.032 381.362,290.032Z" style="fill-rule:nonzero;"/>
        </g>
        <g id="D-Pad">
            <path d="M114.003,232.84C119.689,228.673 124.407,224.584 125.111,223.171C126.464,220.472 128.355,205.925 128,200.931C127.92,199.878 127.694,196.677 114.028,196.671C100.32,196.677 100.093,199.878 100.013,200.931C99.658,205.918 101.543,220.466 102.902,223.171C103.685,224.744 108.96,229.15 114.003,232.84Z" style="fill-rule:nonzero;"/>
            <path d="M92.962,233.11C90.502,231.881 78.378,230.185 72.044,230.185C71.542,230.185 71.107,230.197 70.734,230.227C69.675,230.301 66.468,230.528 66.463,244.193C66.469,257.902 69.676,258.129 70.729,258.202C71.108,258.233 71.549,258.245 72.045,258.245C78.385,258.245 90.509,256.557 92.963,255.32C94.634,254.481 99.316,248.747 102.639,244.218C98.936,239.181 94.529,233.893 92.962,233.11Z" style="fill-rule:nonzero;"/>
            <path d="M157.284,230.234C156.905,230.203 156.464,230.191 155.968,230.191C149.628,230.191 137.504,231.88 135.044,233.116C133.478,233.9 129.071,239.181 125.375,244.224C128.692,248.752 133.374,254.494 135.044,255.326C137.504,256.556 149.628,258.251 155.962,258.251C156.458,258.251 156.898,258.239 157.272,258.209C158.331,258.135 161.538,257.909 161.543,244.243L161.543,244.114C161.525,230.528 158.336,230.301 157.284,230.234Z" style="fill-rule:nonzero;"/>
            <path d="M114.003,255.595C108.96,259.291 103.679,263.685 102.901,265.258C101.548,267.963 99.657,282.51 100.012,287.498C100.085,288.551 100.318,291.758 113.984,291.764L114.026,294.824L114.026,291.764C127.692,291.758 127.924,288.551 127.998,287.493C128.353,282.517 126.468,267.97 125.109,265.259C124.407,263.851 119.682,259.762 114.003,255.595Z" style="fill-rule:nonzero;"/>
        </g>
        <g id="Buttons">
            <circle cx="512.446" cy="241.152" r="19.865"/>
            <circle cx="465.824" cy="287.774" r="19.865"/>
            <circle cx="419.202" cy="241.152" r="19.865"/>
            <circle cx="465.824" cy="194.529" r="19.866"/>
        </g>
    </g>
</svg>
