<?xml version="1.0" encoding="UTF-8" standalone="no"?>
<!DOCTYPE svg PUBLIC "-//W3C//DTD SVG 1.1//EN" "http://www.w3.org/Graphics/SVG/1.1/DTD/svg11.dtd">
<svg width="100%" height="100%" viewBox="0 0 100 100" version="1.1" xmlns="http://www.w3.org/2000/svg" xmlns:xlink="http://www.w3.org/1999/xlink" xml:space="preserve" xmlns:serif="http://www.serif.com/" style="fill-rule:evenodd;clip-rule:evenodd;stroke-linecap:round;stroke-linejoin:round;stroke-miterlimit:1.5;">
    <g transform="matrix(0.15198,0,0,0.15198,13.1448,6.97872)">
        <path d="M401.297,73.096L371.949,102.443C369.345,104.067 367.139,106.273 365.515,108.877L332.249,142.144L332.5,83.143C332.5,72.115 323.528,63.143 312.5,63.143C301.472,63.143 292.5,72.115 292.5,83.143L292.077,182.315L261.906,212.487L262.5,50C262.5,38.972 253.528,30 242.5,30C231.472,30 222.5,38.972 222.5,50L221.759,252.633L191.649,282.743L192.5,83.143C192.5,72.115 183.528,63.143 172.5,63.143C161.472,63.143 152.5,72.115 152.5,83.143L151.796,322.596L121.791,352.601L122.5,251.178C122.5,240.15 113.528,231.178 102.5,231.178C91.472,231.178 82.5,240.15 82.5,251.178L82.5,391.893L52.5,421.893L52.5,251.178C52.5,223.608 74.93,201.178 102.5,201.178C109.609,201.178 116.371,202.679 122.5,205.365L122.5,83.143C122.5,55.573 144.93,33.143 172.5,33.143C180.18,33.143 187.459,34.888 193.967,37.995C199.359,16.206 219.068,0 242.5,0C265.932,0 285.641,16.205 291.033,37.995C297.542,34.887 304.82,33.143 312.5,33.143C336.948,33.143 357.339,50.784 361.648,74.002C368,71.075 375.059,69.429 382.5,69.429C389.145,69.429 395.491,70.732 401.297,73.096ZM72.346,504.404L94.287,482.463C111.281,514.372 144.896,536.143 183.5,536.143L301.5,536.143C357.191,536.143 402.5,490.834 402.5,435.143L402.5,174.25L432.5,144.25L432.5,435.143C432.5,507.376 373.733,566.143 301.5,566.143L183.5,566.143C136.677,566.143 95.514,541.45 72.346,504.404ZM362.004,214.746L361.648,283.071L331.648,283.071L331.81,244.94L362.004,214.746Z" style="fill-rule:nonzero;"/>
    </g>
    <g transform="matrix(1,0,0,1,1.80147,-2.96256)">
        <path d="M10.659,90.502L85.738,15.423" style="fill:none;stroke:black;stroke-width:4px;"/>
    </g>
</svg>
