<?xml version="1.0" encoding="UTF-8" standalone="no"?>
<!DOCTYPE svg PUBLIC "-//W3C//DTD SVG 1.1//EN" "http://www.w3.org/Graphics/SVG/1.1/DTD/svg11.dtd">
<svg width="100%" height="100%" viewBox="0 0 100 100" version="1.1" xmlns="http://www.w3.org/2000/svg" xmlns:xlink="http://www.w3.org/1999/xlink" xml:space="preserve" xmlns:serif="http://www.serif.com/" style="fill-rule:evenodd;clip-rule:evenodd;stroke-linejoin:round;stroke-miterlimit:2;">
    <g id="Encoder" transform="matrix(5.30422e-17,-0.866246,1,6.12323e-17,2.14653e-14,97.5665)">
        <path d="M28.094,29.703L63.366,29.703C64.147,29.703 64.897,29.972 65.45,30.451C66.002,30.929 66.313,31.579 66.313,32.256L66.313,39.748L72.896,39.748C73.292,39.748 73.613,40.026 73.613,40.369L73.613,46.7L95.392,46.7C96.067,46.7 96.614,47.174 96.614,47.759L96.614,52.241C96.614,52.826 96.067,53.3 95.392,53.3L73.613,53.3L73.613,59.631C73.613,59.974 73.292,60.252 72.896,60.252L66.313,60.252L66.313,67.744C66.313,68.421 66.002,69.071 65.45,69.549C64.897,70.028 64.147,70.297 63.366,70.297L28.094,70.297L28.094,29.703ZM23.476,70.297L21.463,70.297C19.274,70.297 17.174,69.544 15.626,68.203C14.078,66.861 13.208,65.043 13.208,63.146L13.208,36.854C13.208,34.957 14.078,33.139 15.626,31.797C17.174,30.456 19.274,29.703 21.463,29.703L23.476,29.703L23.476,70.297Z"/>
    </g>
</svg>
