<?xml version="1.0" encoding="UTF-8" standalone="no"?>
<!DOCTYPE svg PUBLIC "-//W3C//DTD SVG 1.1//EN" "http://www.w3.org/Graphics/SVG/1.1/DTD/svg11.dtd">
<svg width="100%" height="100%" viewBox="0 0 100 100" version="1.1" xmlns="http://www.w3.org/2000/svg" xmlns:xlink="http://www.w3.org/1999/xlink" xml:space="preserve" xmlns:serif="http://www.serif.com/" style="fill-rule:evenodd;clip-rule:evenodd;stroke-linecap:round;stroke-linejoin:round;stroke-miterlimit:1.5;">
    <path d="M41.78,53.238C30.363,42.976 18.181,31.957 13.952,27.889C11.374,25.41 10.424,22.796 10.508,20.343C10.629,16.791 13.043,13.424 16.58,11.135C22.257,7.461 30.6,6.709 35.294,11.571C39.277,15.696 47.94,27.471 56.094,38.924L53.238,41.78C45.103,30.331 36.399,18.474 32.416,14.349C28.99,10.801 22.897,11.811 18.754,14.493C16.4,16.016 14.586,18.115 14.505,20.479C14.455,21.97 15.158,23.499 16.725,25.006C20.96,29.079 33.186,40.136 44.612,50.406L41.78,53.238ZM61.949,47.211C65,51.558 67.761,55.536 69.897,58.626C72.609,62.551 74.311,65.044 74.311,65.044C74.843,65.825 74.756,66.872 74.103,67.555L67.898,74.033C67.153,74.811 65.926,74.859 65.122,74.142C65.122,74.142 62.414,71.726 58.225,67.98C55.682,65.706 52.593,62.94 49.232,59.928L52.065,57.095C52.504,57.489 52.938,57.878 53.367,58.263C59.199,63.489 64.044,67.818 66.345,69.872L70.091,65.96C68.688,63.91 65.78,59.677 62.143,54.452C61.171,53.056 60.148,51.589 59.086,50.074L61.949,47.211Z"/>
    <g transform="matrix(0.968199,0.25018,-0.25018,0.968199,19.5976,-4.98154)">
        <path d="M65.998,38.994C66.037,38.712 66.279,38.501 66.564,38.501C66.85,38.501 67.092,38.712 67.131,38.994L68.945,52.095L78.112,42.562C78.31,42.357 78.63,42.328 78.861,42.496C79.091,42.664 79.163,42.976 79.029,43.228L72.796,54.893L85.816,52.57C86.097,52.52 86.372,52.684 86.46,52.956C86.548,53.227 86.423,53.522 86.166,53.647L74.267,59.42L86.166,65.194C86.423,65.318 86.548,65.613 86.46,65.885C86.372,66.156 86.097,66.321 85.816,66.271L72.796,63.948L79.029,75.613C79.163,75.864 79.091,76.177 78.861,76.345C78.63,76.512 78.31,76.484 78.112,76.278L68.945,66.746L67.131,79.846C67.092,80.129 66.85,80.34 66.564,80.34C66.279,80.34 66.037,80.129 65.998,79.846L64.184,66.746L55.016,76.278C54.819,76.484 54.499,76.512 54.268,76.345C54.037,76.177 53.966,75.864 54.1,75.613L60.333,63.948L47.313,66.271C47.032,66.321 46.757,66.156 46.669,65.885C46.581,65.613 46.706,65.318 46.963,65.194L58.862,59.42L46.963,53.647C46.706,53.522 46.581,53.227 46.669,52.956C46.757,52.684 47.032,52.52 47.313,52.57L60.333,54.893L54.1,43.228C53.966,42.976 54.037,42.664 54.268,42.496C54.499,42.328 54.819,42.357 55.016,42.562L64.184,52.095L65.998,38.994Z"/>
    </g>
    <g transform="matrix(1,0,0,1,-6.7485,0.938044)">
        <path d="M28.426,79.474L89.249,18.65" style="fill:none;stroke:black;stroke-width:4px;"/>
    </g>
</svg>
