<?xml version="1.0" encoding="UTF-8" standalone="no"?>
<!DOCTYPE svg PUBLIC "-//W3C//DTD SVG 1.1//EN" "http://www.w3.org/Graphics/SVG/1.1/DTD/svg11.dtd">
<svg width="100%" height="100%" viewBox="0 0 100 100" version="1.1" xmlns="http://www.w3.org/2000/svg" xmlns:xlink="http://www.w3.org/1999/xlink" xml:space="preserve" xmlns:serif="http://www.serif.com/" style="fill-rule:evenodd;clip-rule:evenodd;stroke-linecap:round;stroke-linejoin:round;stroke-miterlimit:1.5;">
    <path d="M73.402,13.318L73.402,86.682C73.402,90.024 70.688,92.738 67.346,92.738L32.654,92.738C29.312,92.738 26.598,90.024 26.598,86.682L26.598,13.318C26.598,9.976 29.312,7.262 32.654,7.262L67.346,7.262C70.688,7.262 73.402,9.976 73.402,13.318Z" style="fill:none;stroke:black;stroke-width:4px;"/>
    <g transform="matrix(0.658116,0,0,0.819831,17.0942,9.00847)">
        <rect x="26.598" y="7.262" width="46.804" height="85.477" style="fill:none;stroke:black;stroke-width:5.38px;"/>
    </g>
    <g transform="matrix(1,0,0,1,7.10543e-15,6.00105)">
        <path d="M34.599,63.923L65.401,63.923" style="fill:none;stroke:black;stroke-width:4px;stroke-linecap:butt;"/>
    </g>
    <g transform="matrix(-1,1.22465e-16,-1.22465e-16,-1,100,127.923)">
        <path d="M34.599,63.923L65.401,63.923" style="fill:none;stroke:black;stroke-opacity:0.6;stroke-width:4px;stroke-linecap:butt;"/>
    </g>
    <g transform="matrix(-1,1.22465e-16,-1.22465e-16,-1,100,120.923)">
        <path d="M34.599,63.923L65.401,63.923" style="fill:none;stroke:black;stroke-opacity:0.4;stroke-width:4px;stroke-linecap:butt;"/>
    </g>
    <g transform="matrix(-1,1.22465e-16,-1.22465e-16,-1,100,111.923)">
        <path d="M34.599,63.923L65.401,63.923" style="fill:none;stroke:black;stroke-opacity:0.2;stroke-width:4px;stroke-linecap:butt;"/>
    </g>
</svg>
