<?xml version="1.0" encoding="UTF-8" standalone="no"?>
<!DOCTYPE svg PUBLIC "-//W3C//DTD SVG 1.1//EN" "http://www.w3.org/Graphics/SVG/1.1/DTD/svg11.dtd">
<svg width="100%" height="100%" viewBox="0 0 100 100" version="1.1" xmlns="http://www.w3.org/2000/svg" xmlns:xlink="http://www.w3.org/1999/xlink" xml:space="preserve" xmlns:serif="http://www.serif.com/" style="fill-rule:evenodd;clip-rule:evenodd;stroke-linecap:round;stroke-linejoin:round;stroke-miterlimit:1.5;">
    <circle cx="50" cy="50" r="43.364" style="fill:none;stroke:black;stroke-width:6px;"/>
    <path d="M52.836,6.729L51.901,20.998C50.635,20.915 49.365,20.915 48.099,20.998L47.164,6.729C49.053,6.605 50.947,6.605 52.836,6.729ZM30.821,11.108L37.145,23.933C36.008,24.495 34.908,25.13 33.853,25.834L25.908,13.944C27.482,12.892 29.123,11.945 30.821,11.108ZM13.944,25.908L25.834,33.853C25.13,34.908 24.495,36.008 23.933,37.145L11.108,30.821C11.945,29.123 12.892,27.482 13.944,25.908ZM6.729,47.164L20.998,48.099C20.915,49.365 20.915,50.635 20.998,51.901L6.729,52.836C6.605,50.947 6.605,49.053 6.729,47.164ZM11.108,69.179L23.933,62.855C24.495,63.992 25.13,65.092 25.834,66.147L13.944,74.092C12.892,72.518 11.945,70.877 11.108,69.179ZM25.908,86.056L33.853,74.166C34.908,74.87 36.008,75.505 37.145,76.067L30.821,88.892C29.123,88.055 27.482,87.108 25.908,86.056ZM47.164,93.271L48.099,79.002C49.365,79.085 50.635,79.085 51.901,79.002L52.836,93.271C50.947,93.395 49.053,93.395 47.164,93.271ZM69.179,88.892L62.855,76.067C63.992,75.505 65.092,74.87 66.147,74.166L74.092,86.056C72.518,87.108 70.877,88.055 69.179,88.892ZM86.056,74.092L74.166,66.147C74.87,65.092 75.505,63.992 76.067,62.855L88.892,69.179C88.055,70.877 87.108,72.518 86.056,74.092ZM93.271,52.836L79.002,51.901C79.085,50.635 79.085,49.365 79.002,48.099L93.271,47.164C93.395,49.053 93.395,50.947 93.271,52.836ZM88.892,30.821L76.067,37.145C75.505,36.008 74.87,34.908 74.166,33.853L86.056,25.908C87.108,27.482 88.055,29.123 88.892,30.821ZM74.092,13.944L66.147,25.834C65.092,25.13 63.992,24.495 62.855,23.933L69.179,11.108C70.877,11.945 72.518,12.892 74.092,13.944Z"/>
    <g transform="matrix(0.19648,0.19648,-0.19648,0.19648,50,30.352)">
        <circle cx="50" cy="50" r="11.107"/>
    </g>
    <g transform="matrix(0.317353,0.317353,-0.780286,0.780286,84.9894,-16.8356)">
        <path d="M50,29.822C50,29.822 60.089,55.199 60.089,66.075C60.089,68.34 55.568,70.178 50,70.178C44.432,70.178 39.911,68.34 39.911,66.075C39.911,55.199 50,29.822 50,29.822Z"/>
    </g>
</svg>
