<?xml version="1.0" encoding="UTF-8" standalone="no"?>
<!DOCTYPE svg PUBLIC "-//W3C//DTD SVG 1.1//EN" "http://www.w3.org/Graphics/SVG/1.1/DTD/svg11.dtd">
<svg width="100%" height="100%" viewBox="0 0 100 100" version="1.1" xmlns="http://www.w3.org/2000/svg" xmlns:xlink="http://www.w3.org/1999/xlink" xml:space="preserve" xmlns:serif="http://www.serif.com/" style="fill-rule:evenodd;clip-rule:evenodd;stroke-linecap:square;stroke-linejoin:round;stroke-miterlimit:1.5;">
    <path d="M53.965,19.07L56.49,28.292C57.97,28.735 59.401,29.328 60.761,30.061L69.068,25.326C71.167,26.948 73.052,28.833 74.674,30.932L69.939,39.239C70.672,40.599 71.265,42.03 71.708,43.51L80.93,46.035C81.268,48.668 81.268,51.332 80.93,53.965L71.708,56.49C71.265,57.97 70.672,59.401 69.939,60.761L74.674,69.068C73.052,71.167 71.167,73.052 69.068,74.674L60.761,69.939C59.401,70.672 57.97,71.265 56.49,71.708L53.965,80.93C51.332,81.268 48.668,81.268 46.035,80.93L43.51,71.708C42.03,71.265 40.599,70.672 39.239,69.939L30.932,74.674C28.833,73.052 26.948,71.167 25.326,69.068L30.061,60.761C29.328,59.401 28.735,57.97 28.292,56.49L19.07,53.965C18.732,51.332 18.732,48.668 19.07,46.035L28.292,43.51C28.735,42.03 29.328,40.599 30.061,39.239L25.326,30.932C26.948,28.833 28.833,26.948 30.932,25.326L39.239,30.061C40.599,29.328 42.03,28.735 43.51,28.292L46.035,19.07C48.668,18.732 51.332,18.732 53.965,19.07ZM50,38.654C56.262,38.654 61.346,43.738 61.346,50C61.346,56.262 56.262,61.346 50,61.346C43.738,61.346 38.654,56.262 38.654,50C38.654,43.738 43.738,38.654 50,38.654Z"/>
    <g transform="matrix(0.707107,0.707107,-0.707107,0.707107,49.5312,-20.9048)">
        <path d="M90.552,50C90.552,27.604 72.396,9.448 50,9.448C72.396,9.448 90.552,27.604 90.552,50Z" style="fill:none;stroke:black;stroke-width:4px;"/>
        <g transform="matrix(-1.35501,1.65941e-16,-1.65941e-16,-1.35501,213.251,124.067)">
            <path d="M90.552,45.338L95.214,54.662L85.89,54.662L90.552,45.338Z"/>
        </g>
    </g>
    <g transform="matrix(-0.707107,-0.707107,0.707107,-0.707107,50.4688,119.579)">
        <path d="M90.552,50C90.552,27.604 72.396,9.448 50,9.448C72.396,9.448 90.552,27.604 90.552,50Z" style="fill:none;stroke:black;stroke-width:4px;"/>
        <g transform="matrix(-1.35501,1.65941e-16,-1.65941e-16,-1.35501,213.251,124.067)">
            <path d="M90.552,45.338L95.214,54.662L85.89,54.662L90.552,45.338Z"/>
        </g>
    </g>
</svg>
