<?xml version="1.0" encoding="UTF-8" standalone="no"?>
<!DOCTYPE svg PUBLIC "-//W3C//DTD SVG 1.1//EN" "http://www.w3.org/Graphics/SVG/1.1/DTD/svg11.dtd">
<svg width="100%" height="100%" viewBox="0 0 100 100" version="1.1" xmlns="http://www.w3.org/2000/svg" xmlns:xlink="http://www.w3.org/1999/xlink" xml:space="preserve" xmlns:serif="http://www.serif.com/" style="fill-rule:evenodd;clip-rule:evenodd;stroke-linecap:round;stroke-linejoin:round;stroke-miterlimit:1.5;">
    <path d="M32.565,3.697L67.435,3.697L75.619,13.101L75.619,50L62.357,50C63.555,48.578 64.529,47.325 65.28,46.239C66.471,44.515 67.286,42.854 67.724,41.255C68.163,39.657 68.383,37.823 68.383,35.755C68.383,32.244 67.568,29.047 65.938,26.164C64.308,23.28 62.098,20.992 59.309,19.3C56.519,17.607 53.432,16.761 50.047,16.761C46.662,16.761 43.575,17.607 40.785,19.3C37.996,20.992 35.77,23.28 34.109,26.164C32.448,29.047 31.617,32.244 31.617,35.755L31.617,42.619C31.617,42.87 31.743,42.995 31.994,42.995L42.619,42.995C42.87,42.995 42.995,42.87 42.995,42.619L42.995,35.755C42.995,33.561 43.669,31.727 45.017,30.254C46.364,28.781 48.041,28.044 50.047,28.044C52.053,28.044 53.714,28.781 55.031,30.254C56.347,31.727 57.005,33.561 57.005,35.755C57.005,36.946 56.88,37.98 56.629,38.858C56.378,39.735 55.814,40.691 54.936,41.726C54.059,42.76 52.68,44.217 50.799,46.098C49.595,47.302 48.543,48.603 47.643,50L24.381,50L24.381,13.101L32.565,3.697Z"/>
    <g transform="matrix(1.64542,1.2326e-32,3.69779e-32,1.64542,-51.9697,-66.3851)">
        <path d="M69.482,70.733C69.054,71.241 68.58,71.783 68.058,72.362C67.106,73.314 66.429,74.171 66.029,74.933C65.629,75.695 65.429,76.533 65.429,77.447L65.429,80.19C65.429,80.343 65.334,80.419 65.144,80.419L58.8,80.419C58.61,80.419 58.515,80.343 58.515,80.19L58.515,77.105C58.515,75.581 58.867,74.047 59.572,72.504C59.853,71.888 60.176,71.298 60.54,70.733L69.482,70.733ZM58.8,90.934C58.61,90.934 58.515,90.839 58.515,90.648L58.515,84.305C58.515,84.153 58.61,84.076 58.8,84.076L65.144,84.076C65.334,84.076 65.429,84.153 65.429,84.305L65.429,90.648C65.429,90.839 65.334,90.934 65.144,90.934L58.8,90.934Z" style="fill-rule:nonzero;"/>
    </g>
    <path d="M32.565,3.697L67.435,3.697L75.619,13.101L75.619,86.9L67.435,96.303L32.565,96.303L24.381,86.9L24.381,13.101L32.565,3.697Z" style="fill:none;stroke:black;stroke-width:4px;"/>
</svg>
